Coordinates
version=1
nRows=9
nColumns=24
inDegrees=yes

Units are S.I. units (second, meters, Newtons, ...)
Angles are in degrees.

endheader
time	pelvis_tilt	pelvis_list	pelvis_rotation	pelvis_tx	pelvis_ty	pelvis_tz	hip_flexion_r	hip_adduction_r	hip_rotation_r	knee_angle_r	ankle_angle_r	subtalar_angle_r	mtp_angle_r	hip_flexion_l	hip_adduction_l	hip_rotation_l	knee_angle_l	ankle_angle_l	subtalar_angle_l	mtp_angle_l	lumbar_extension	lumbar_bending	lumbar_rotation
      1.39583333	      0.09359029	      1.62829528	     -5.90585920	      0.22018757	      1.02337927	      0.28317294	     14.66598826	     -5.52010462	     -2.23135550	    -64.05497736	      5.53601130	     -3.52919949	      6.27114518	      8.46346388	      2.25274862	    -10.66777457	    -11.35782382	      1.42939759	    -12.43813050	    -13.83227210	     -9.55712327	     -4.48719691	      5.81126389
      1.40000000	      0.09671999	      1.53072890	     -5.67494760	      0.22498495	      1.02402820	      0.28241625	     15.19436960	     -5.38107157	     -2.54749571	    -63.84495719	      5.60048280	     -4.28310417	      6.16989890	      8.05165888	      2.25285469	    -10.49364936	    -11.12115044	      1.45616735	    -12.36232027	    -13.84659204	     -9.62488490	     -4.32241741	      5.70669524
      1.40416667	      0.20958833	      1.28124109	     -5.23645802	      0.22990549	      1.02499279	      0.28117280	     15.46184587	     -5.17221431	     -3.12081506	    -63.42357696	      5.57567238	     -4.90784871	      5.80717541	      7.51864022	      2.14142812	    -10.06427153	    -10.90424069	      1.59116921	    -12.24007360	    -13.89747783	     -9.83835277	     -3.93740532	      5.14637580
      1.40833333	      0.35162960	      1.10807041	     -4.87839715	      0.23472515	      1.02590139	      0.28009203	     15.74295256	     -5.03240819	     -3.60877787	    -63.01247484	      5.57183524	     -5.55284642	      5.37470271	      6.94381902	      2.09976428	     -9.70141390	    -10.63693812	      1.65138964	    -12.19633475	    -13.95900487	    -10.08546981	     -3.66497313	      4.77836316
      1.41250000	      0.38723173	      0.97533160	     -4.60984709	      0.23956271	      1.02657941	      0.27925347	     16.16576963	     -4.89354548	     -4.00016907	    -62.58651367	      5.51186660	     -6.23333911	      5.16594398	      6.48604151	      2.06174552	     -9.48197054	    -10.38646413	      1.74448142	    -12.13220055	    -13.98524397	    -10.17167765	     -3.45610774	      4.57813358
      1.41666667	      0.56797750	      0.76106186	     -4.19003041	      0.24442385	      1.02754013	      0.27804720	     16.33632086	     -4.74797456	     -4.57656897	    -62.02403563	      5.58398493	     -6.73050194	      4.73905453	      5.87907206	      1.96872794	     -9.10870649	    -10.13997939	      1.81005960	    -12.01493235	    -14.03826559	    -10.46029154	     -3.10489109	      4.08122538
      1.42083333	      0.70047277	      0.58956692	     -3.83962832	      0.24923803	      1.02835496	      0.27701747	     16.58617012	     -4.61991957	     -5.07524958	    -61.44842799	      5.59329787	     -7.26028995	      4.29131351	      5.31702396	      1.90179882	     -8.78387817	     -9.87297163	      1.87109999	    -11.95401545	    -14.09343373	    -10.68189593	     -2.82571039	      3.73606320
      1.42500000	      0.83249724	      0.42661862	     -3.49082334	      0.25404612	      1.02913653	      0.27600285	     16.82396402	     -4.50508928	     -5.57540458	    -60.82397216	      5.61690326	     -7.73062876	      3.81013135	      4.75856276	      1.83498965	     -8.47517947	     -9.60876654	      1.94174926	    -11.87060711	    -14.15001263	    -10.89892118	     -2.55402191	      3.37423381
      1.42916667	      0.97455563	      0.26725543	     -3.15237902	      0.25884960	      1.02990077	      0.27502675	     17.03776277	     -4.39380797	     -6.06898068	    -60.14643826	      5.63855807	     -8.16132025	      3.32048504	      4.18932515	      1.76320737	     -8.18824010	     -9.34396502	      2.01551248	    -11.79270542	    -14.20446348	    -11.12368764	     -2.29298344	      3.03769747
